# xmcd
#
# Track frame offsets:
#	225
#	10251
#	19930
#	28784
#	40928
#	51600
#	61592
#	71755
#	84892
#	95421
#	106673
#	119295
#	131885
#	142941
#	153135
#	163796
#	171555
#	183740
#	195280
#	210360
#
# Disc length: 2988 seconds
#
# Revision: 2
# Processed by: cddbd v1.5.2PL0 Copyright (c) Steve Scherf et al.
# Submitted via: audiograbber 1.83.01
#
DISCID=0e0ba914
DTITLE=Various Artist - 45 Phobia
DYEAR=1900
DGENRE=Northern Soul
TTITLE0=Mayfield Singers - Don't Start None
TTITLE1=Roscoe Shelton - You're The Dream
TTITLE2=Magnificent Men - Keep On Climbing
TTITLE3=Edwin Starr - Has It Happened To You Yet
TTITLE4=The Capitols - Up On Top Now
TTITLE5=The Sweets - Satisfy Me Baby (Inst.)
TTITLE6=Four Temples - All Of My Life
TTITLE7=Robert Knight - Branded
TTITLE8=Charades - You Better Believe It
TTITLE9=Chuck Jackson - Little By Little
TTITLE10=Frank Wilson - My Sugar Baby
TTITLE11=Sharon Soul - Girl Crazy
TTITLE12=Bobby Reed - Caldonia Brown
TTITLE13=Deon Jackson - I Remember The Feeling
TTITLE14=Johnny Sayles - I'm Satisfied
TTITLE15=Popcorn Orchestra - Say It Isn't So (With Strings)
TTITLE16=Steve Mancha - He Stole A Love That Was Mine
TTITLE17=Tommy Knight - Don't Bring Back Memories
TTITLE18=O C Smith - Color Him Father
TTITLE19=Gloria Barnes - You Don't Mean It
EXTD=
EXTT0=
EXTT1=
EXTT2=
EXTT3=
EXTT4=
EXTT5=
EXTT6=
EXTT7=
EXTT8=
EXTT9=
EXTT10=
EXTT11=
EXTT12=
EXTT13=
EXTT14=
EXTT15=
EXTT16=
EXTT17=
EXTT18=
EXTT19=
PLAYORDER=
